<?xml version="1.0" encoding="UTF-8"?>
<svg width="56px" height="56px" viewBox="0 0 56 56" version="1.1" xmlns="http://www.w3.org/2000/svg" xmlns:xlink="http://www.w3.org/1999/xlink">
    <title>logo</title>
    <defs>
        <circle id="path-1" cx="28" cy="28" r="28"></circle>
    </defs>
    <g id="Page-1" stroke="none" stroke-width="1" fill="none" fill-rule="evenodd">
        <g id="Logo-Clipped">
            <mask id="mask-2" fill="white">
                <use xlink:href="#path-1"></use>
            </mask>
            <g id="path-1"></g>
            <g id="Logo" mask="url(#mask-2)">
                <g transform="translate(7.000000, 11.000000)" id="Group">
                    <g transform="translate(0.840000, 0.200000)">
                        <path d="M27.4578339,10.184579 C25.3835057,10.1210163 18.0714783,10.1429298 17.1225487,10.1460603 C17.0562366,10.1463325 16.9931925,10.1237385 16.9419947,10.0815448 C14.8193281,8.32928369 14.7617306,8.27170978 8.67395718,2.18643374 C7.81734704,1.330175 5.36992841,-2.06069668 5.34228704,1.83078216 L5.77052403,46.3840401 C5.77052403,46.3840401 6.29598238,47.6538949 1.33850951,42.6995445 C1.28077581,42.6418345 1.19649005,42.6195127 1.11724238,42.6391124 C-0.581272137,43.0603682 -0.652894603,46.7546258 3.10034047,47.3792279 C3.11177827,47.3801352 4.12016631,47.3815417 6.12550458,47.3834472 L21.3798643,58.516754 C21.5376788,58.5159374 21.6659457,58.3892204 21.6703029,58.2314706 C21.7001229,57.1428746 21.8258027,56.4886009 20.098149,55.1834563 C20.0251648,55.1283323 19.9809114,43.8424478 19.9805029,43.7509829 C19.976418,42.8445001 19.9550402,37.9579319 19.9495936,36.7091361 C19.9487766,36.5488003 20.0779966,36.4194972 20.2383983,36.4203139 C20.9346068,36.4237166 22.7858977,36.4269832 24.715347,36.3805702 C24.9852248,36.374037 25.0975605,36.0319962 24.8839185,35.8664883 C23.7029648,34.9529278 22.1016717,32.1961858 22.1924933,30.7119223 C22.2110117,30.4086725 22.6151476,30.3248297 22.7476355,30.5981356 C22.8448569,30.7984873 22.9525629,30.997478 23.0707536,31.1951076 C26.4078703,36.7673906 34.639552,36.5458059 37.7658862,30.8526585 C38.9374446,28.7190213 39.7428569,25.7083007 39.7428569,21.4628036 C39.7428569,21.4628036 40.1750427,10.2380696 28.6718755,10.2263643 C28.2891175,10.2108479 27.8852539,10.1976454 27.4578339,10.184579 Z" id="Fill-1" fill="#FFFFFF" fill-rule="nonzero"></path>
                        <path d="M28.6540108,10.2260921 C28.6537384,12.3955259 30.1859962,15.7997362 31.5554015,17.3600843 C33.591059,19.6795097 36.7139891,20.8911478 39.7428297,21.4628036 C39.7428297,21.4628036 40.1758324,10.2260921 28.6540108,10.2260921" id="Fill-4" fill="#C67FFC" fill-rule="nonzero"></path>
                        <path d="M18.7299692,18.0520601 C17.3763591,18.0520601 16.2790103,19.1489587 16.2790103,20.5020135 C16.2790103,21.8550684 17.3763591,22.951967 18.7299692,22.951967 C20.0835794,22.951967 21.1809281,21.8550684 21.1809281,20.5020135 C21.1809281,19.1489587 20.0835794,18.0520601 18.7299692,18.0520601" id="Fill-7" fill="#3B3542" fill-rule="nonzero"></path>
                    </g>
                </g>
            </g>
        </g>
    </g>
</svg>